<svg width="93" height="63" viewBox="0 0 93 63" fill="none" xmlns="http://www.w3.org/2000/svg">
<path d="M13.5 29H10.5V16.25C10.5 15.875 10.4531 15.5703 10.3594 15.3359C10.2812 15.0859 10.1719 14.8984 10.0312 14.7734C9.89062 14.6328 9.72656 14.5391 9.53906 14.4922C9.36719 14.4297 9.1875 14.3984 9 14.3984C8.8125 14.3984 8.625 14.4297 8.4375 14.4922C8.26562 14.5391 8.10938 14.6328 7.96875 14.7734C7.82812 14.8984 7.71094 15.0859 7.61719 15.3359C7.53906 15.5703 7.5 15.875 7.5 16.25V49.25C7.5 49.4375 7.50781 49.6641 7.52344 49.9297C7.53906 50.1797 7.59375 50.4219 7.6875 50.6562C7.78125 50.8906 7.92969 51.0938 8.13281 51.2656C8.33594 51.4219 8.625 51.5 9 51.5C9.375 51.5 9.66406 51.4219 9.86719 51.2656C10.0703 51.0938 10.2188 50.8906 10.3125 50.6562C10.4062 50.4219 10.4609 50.1797 10.4766 49.9297C10.4922 49.6641 10.5 49.4375 10.5 49.25V33.5H13.5V49.25C13.5 49.4375 13.4766 49.7812 13.4297 50.2812C13.3828 50.7656 13.2188 51.2656 12.9375 51.7812C12.6562 52.2969 12.2109 52.75 11.6016 53.1406C10.9922 53.5469 10.125 53.75 9 53.75C7.875 53.75 7.00781 53.5469 6.39844 53.1406C5.78906 52.75 5.34375 52.2969 5.0625 51.7812C4.78125 51.2656 4.61719 50.7656 4.57031 50.2812C4.52344 49.7812 4.5 49.4375 4.5 49.25V16.25C4.5 15.5312 4.63281 14.9141 4.89844 14.3984C5.16406 13.8672 5.50781 13.4375 5.92969 13.1094C6.36719 12.7812 6.85156 12.5391 7.38281 12.3828C7.91406 12.2266 8.45312 12.1484 9 12.1484C9.57812 12.1484 10.1328 12.2344 10.6641 12.4062C11.2109 12.5781 11.6953 12.8359 12.1172 13.1797C12.5391 13.5234 12.875 13.9531 13.125 14.4688C13.375 14.9844 13.5 15.5781 13.5 16.25V29ZM25.5 49.25C25.5 49.4375 25.4766 49.7812 25.4297 50.2812C25.3828 50.7656 25.2188 51.2656 24.9375 51.7812C24.6562 52.2969 24.2109 52.75 23.6016 53.1406C22.9922 53.5469 22.125 53.75 21 53.75C19.875 53.75 19.0078 53.5469 18.3984 53.1406C17.7891 52.75 17.3438 52.2969 17.0625 51.7812C16.7812 51.2656 16.6172 50.7656 16.5703 50.2812C16.5234 49.7812 16.5 49.4375 16.5 49.25V16.25C16.5 16.125 16.5078 15.9375 16.5234 15.6875C16.5391 15.4375 16.5859 15.1641 16.6641 14.8672C16.7422 14.5547 16.875 14.2422 17.0625 13.9297C17.25 13.6016 17.5078 13.3047 17.8359 13.0391C18.1641 12.7734 18.5859 12.5625 19.1016 12.4062C19.6172 12.2344 20.25 12.1484 21 12.1484C21.75 12.1484 22.3828 12.2344 22.8984 12.4062C23.4141 12.5625 23.8359 12.7734 24.1641 13.0391C24.4922 13.3047 24.75 13.6016 24.9375 13.9297C25.125 14.2422 25.2578 14.5547 25.3359 14.8672C25.4141 15.1641 25.4609 15.4375 25.4766 15.6875C25.4922 15.9375 25.5 16.125 25.5 16.25V49.25ZM19.5 49.25C19.5 49.4375 19.5078 49.6641 19.5234 49.9297C19.5391 50.1797 19.5938 50.4219 19.6875 50.6562C19.7812 50.8906 19.9297 51.0938 20.1328 51.2656C20.3359 51.4219 20.625 51.5 21 51.5C21.375 51.5 21.6641 51.4219 21.8672 51.2656C22.0703 51.0938 22.2188 50.8906 22.3125 50.6562C22.4062 50.4219 22.4609 50.1797 22.4766 49.9297C22.4922 49.6641 22.5 49.4375 22.5 49.25V16.25C22.5 16.0625 22.4922 15.8594 22.4766 15.6406C22.4609 15.4219 22.4062 15.2266 22.3125 15.0547C22.2188 14.8672 22.0703 14.7109 21.8672 14.5859C21.6641 14.4609 21.375 14.3984 21 14.3984C20.625 14.3984 20.3359 14.4609 20.1328 14.5859C19.9297 14.7109 19.7812 14.8672 19.6875 15.0547C19.5938 15.2266 19.5391 15.4219 19.5234 15.6406C19.5078 15.8594 19.5 16.0625 19.5 16.25V49.25ZM31.5 12.5V50.75H34.5V53H28.5V12.5H31.5ZM46.5 49.25C46.5 49.4375 46.4766 49.7812 46.4297 50.2812C46.3828 50.7656 46.2188 51.2656 45.9375 51.7812C45.6562 52.2969 45.2109 52.75 44.6016 53.1406C43.9922 53.5469 43.125 53.75 42 53.75C40.875 53.75 40.0078 53.5469 39.3984 53.1406C38.7891 52.75 38.3438 52.2969 38.0625 51.7812C37.7812 51.2656 37.6172 50.7656 37.5703 50.2812C37.5234 49.7812 37.5 49.4375 37.5 49.25V16.25C37.5 16.125 37.5078 15.9375 37.5234 15.6875C37.5391 15.4375 37.5859 15.1641 37.6641 14.8672C37.7422 14.5547 37.875 14.2422 38.0625 13.9297C38.25 13.6016 38.5078 13.3047 38.8359 13.0391C39.1641 12.7734 39.5859 12.5625 40.1016 12.4062C40.6172 12.2344 41.25 12.1484 42 12.1484C42.75 12.1484 43.3828 12.2344 43.8984 12.4062C44.4141 12.5625 44.8359 12.7734 45.1641 13.0391C45.4922 13.3047 45.75 13.6016 45.9375 13.9297C46.125 14.2422 46.2578 14.5547 46.3359 14.8672C46.4141 15.1641 46.4609 15.4375 46.4766 15.6875C46.4922 15.9375 46.5 16.125 46.5 16.25V49.25ZM40.5 49.25C40.5 49.4375 40.5078 49.6641 40.5234 49.9297C40.5391 50.1797 40.5938 50.4219 40.6875 50.6562C40.7812 50.8906 40.9297 51.0938 41.1328 51.2656C41.3359 51.4219 41.625 51.5 42 51.5C42.375 51.5 42.6641 51.4219 42.8672 51.2656C43.0703 51.0938 43.2188 50.8906 43.3125 50.6562C43.4062 50.4219 43.4609 50.1797 43.4766 49.9297C43.4922 49.6641 43.5 49.4375 43.5 49.25V16.25C43.5 16.0625 43.4922 15.8594 43.4766 15.6406C43.4609 15.4219 43.4062 15.2266 43.3125 15.0547C43.2188 14.8672 43.0703 14.7109 42.8672 14.5859C42.6641 14.4609 42.375 14.3984 42 14.3984C41.625 14.3984 41.3359 14.4609 41.1328 14.5859C40.9297 14.7109 40.7812 14.8672 40.6875 15.0547C40.5938 15.2266 40.5391 15.4219 40.5234 15.6406C40.5078 15.8594 40.5 16.0625 40.5 16.25V49.25ZM54.75 43.1328C54.75 41.4766 54.6641 40.0547 54.4922 38.8672C54.3203 37.6797 54.0938 36.6484 53.8125 35.7734C53.5312 34.8828 53.2109 34.1094 52.8516 33.4531C52.4922 32.7969 52.125 32.1797 51.75 31.6016C51.375 31.0234 51.0078 30.4453 50.6484 29.8672C50.2891 29.2891 49.9688 28.6328 49.6875 27.8984C49.4062 27.1641 49.1797 26.3203 49.0078 25.3672C48.8359 24.3984 48.75 23.2422 48.75 21.8984V16.25C48.75 15.875 48.8047 15.4531 48.9141 14.9844C49.0391 14.5 49.2656 14.0547 49.5938 13.6484C49.9219 13.2266 50.375 12.875 50.9531 12.5938C51.5469 12.2969 52.3125 12.1484 53.25 12.1484C54.1875 12.1484 54.9453 12.2969 55.5234 12.5938C56.1172 12.875 56.5781 13.2266 56.9062 13.6484C57.2344 14.0547 57.4531 14.5 57.5625 14.9844C57.6875 15.4531 57.75 15.875 57.75 16.25V26.75H54.75V16.25C54.75 15.875 54.7031 15.5703 54.6094 15.3359C54.5312 15.0859 54.4219 14.8984 54.2812 14.7734C54.1406 14.6328 53.9766 14.5391 53.7891 14.4922C53.6172 14.4297 53.4375 14.3984 53.25 14.3984C53.0625 14.3984 52.875 14.4297 52.6875 14.4922C52.5156 14.5391 52.3594 14.6328 52.2188 14.7734C52.0781 14.8984 51.9609 15.0859 51.8672 15.3359C51.7891 15.5703 51.75 15.875 51.75 16.25V20.8203C51.75 22.5859 51.8984 24.0625 52.1953 25.25C52.4922 26.4375 52.8594 27.4766 53.2969 28.3672C53.75 29.2422 54.2344 30.0391 54.75 30.7578C55.2656 31.4766 55.7422 32.2578 56.1797 33.1016C56.6328 33.9297 57.0078 34.8984 57.3047 36.0078C57.6016 37.1016 57.75 38.4688 57.75 40.1094V49.25C57.75 49.4375 57.7266 49.7812 57.6797 50.2812C57.6328 50.7656 57.4688 51.2656 57.1875 51.7812C56.9062 52.2969 56.4609 52.75 55.8516 53.1406C55.2422 53.5469 54.375 53.75 53.25 53.75C52.125 53.75 51.2578 53.5469 50.6484 53.1406C50.0391 52.75 49.5938 52.2969 49.3125 51.7812C49.0312 51.2656 48.8672 50.7656 48.8203 50.2812C48.7734 49.7812 48.75 49.4375 48.75 49.25V35.75H51.75V49.25C51.75 49.4375 51.7578 49.6641 51.7734 49.9297C51.7891 50.1797 51.8438 50.4219 51.9375 50.6562C52.0312 50.8906 52.1797 51.0938 52.3828 51.2656C52.5859 51.4219 52.875 51.5 53.25 51.5C53.625 51.5 53.9141 51.4219 54.1172 51.2656C54.3203 51.0938 54.4688 50.8906 54.5625 50.6562C54.6562 50.4219 54.7109 50.1797 54.7266 49.9297C54.7422 49.6641 54.75 49.4375 54.75 49.25V43.1328ZM65.25 43.1328C65.25 41.4766 65.1641 40.0547 64.9922 38.8672C64.8203 37.6797 64.5938 36.6484 64.3125 35.7734C64.0312 34.8828 63.7109 34.1094 63.3516 33.4531C62.9922 32.7969 62.625 32.1797 62.25 31.6016C61.875 31.0234 61.5078 30.4453 61.1484 29.8672C60.7891 29.2891 60.4688 28.6328 60.1875 27.8984C59.9062 27.1641 59.6797 26.3203 59.5078 25.3672C59.3359 24.3984 59.25 23.2422 59.25 21.8984V16.25C59.25 15.875 59.3047 15.4531 59.4141 14.9844C59.5391 14.5 59.7656 14.0547 60.0938 13.6484C60.4219 13.2266 60.875 12.875 61.4531 12.5938C62.0469 12.2969 62.8125 12.1484 63.75 12.1484C64.6875 12.1484 65.4453 12.2969 66.0234 12.5938C66.6172 12.875 67.0781 13.2266 67.4062 13.6484C67.7344 14.0547 67.9531 14.5 68.0625 14.9844C68.1875 15.4531 68.25 15.875 68.25 16.25V26.75H65.25V16.25C65.25 15.875 65.2031 15.5703 65.1094 15.3359C65.0312 15.0859 64.9219 14.8984 64.7812 14.7734C64.6406 14.6328 64.4766 14.5391 64.2891 14.4922C64.1172 14.4297 63.9375 14.3984 63.75 14.3984C63.5625 14.3984 63.375 14.4297 63.1875 14.4922C63.0156 14.5391 62.8594 14.6328 62.7188 14.7734C62.5781 14.8984 62.4609 15.0859 62.3672 15.3359C62.2891 15.5703 62.25 15.875 62.25 16.25V20.8203C62.25 22.5859 62.3984 24.0625 62.6953 25.25C62.9922 26.4375 63.3594 27.4766 63.7969 28.3672C64.25 29.2422 64.7344 30.0391 65.25 30.7578C65.7656 31.4766 66.2422 32.2578 66.6797 33.1016C67.1328 33.9297 67.5078 34.8984 67.8047 36.0078C68.1016 37.1016 68.25 38.4688 68.25 40.1094V49.25C68.25 49.4375 68.2266 49.7812 68.1797 50.2812C68.1328 50.7656 67.9688 51.2656 67.6875 51.7812C67.4062 52.2969 66.9609 52.75 66.3516 53.1406C65.7422 53.5469 64.875 53.75 63.75 53.75C62.625 53.75 61.7578 53.5469 61.1484 53.1406C60.5391 52.75 60.0938 52.2969 59.8125 51.7812C59.5312 51.2656 59.3672 50.7656 59.3203 50.2812C59.2734 49.7812 59.25 49.4375 59.25 49.25V35.75H62.25V49.25C62.25 49.4375 62.2578 49.6641 62.2734 49.9297C62.2891 50.1797 62.3438 50.4219 62.4375 50.6562C62.5312 50.8906 62.6797 51.0938 62.8828 51.2656C63.0859 51.4219 63.375 51.5 63.75 51.5C64.125 51.5 64.4141 51.4219 64.6172 51.2656C64.8203 51.0938 64.9688 50.8906 65.0625 50.6562C65.1562 50.4219 65.2109 50.1797 65.2266 49.9297C65.2422 49.6641 65.25 49.4375 65.25 49.25V43.1328ZM78.75 53H75.75L75.375 43.25H73.1484L72.75 53H69.75L72 12.5H76.5L78.75 53ZM75 32L74.25 14L73.5 32L73.1484 41H75.375L75 32ZM84 12.5V50.75H87V53H81V12.5H84Z" fill="white"/>
<line y1="6.5" x2="90" y2="6.5" stroke="white" stroke-width="3"/>
<line y1="59.5" x2="90" y2="59.5" stroke="white" stroke-width="3"/>
</svg>
